HIERARCHY
ROOT Hips
{
  OFFSET 51.2667 84.4104 9.60434
  CHANNELS 6 Xposition Yposition Zposition Zrotation Xrotation Yrotation
  JOINT spine
  {
    OFFSET 0 5.95438 0.342407
    CHANNELS 3 Zrotation Xrotation Yrotation
    JOINT spine1
    {
      OFFSET 0 8.85602 0
      CHANNELS 3 Zrotation Xrotation Yrotation
      JOINT spine2
      {
        OFFSET 0 8.48567 0
        CHANNELS 3 Zrotation Xrotation Yrotation
        JOINT Neck
        {
          OFFSET 0 21.7863 1.0387
          CHANNELS 3 Zrotation Xrotation Yrotation
          JOINT Head
          {
            OFFSET 0 6.5822 0
            CHANNELS 3 Zrotation Xrotation Yrotation
            End Site
            {
              OFFSET 0 15.9326 -5.25436
            }
          }
        }
        JOINT RightShoulder
        {
          OFFSET -3.57307 9.16386 -0.497525
          CHANNELS 3 Zrotation Xrotation Yrotation
          JOINT RightArm
          {
            OFFSET 0 12.0192 0
            CHANNELS 3 Zrotation Xrotation Yrotation
            JOINT RightArmRoll
            {
              OFFSET 0 6.06755 0
              CHANNELS 3 Zrotation Xrotation Yrotation
              JOINT RightForeArm
              {
                OFFSET 0 17.6726 0
                CHANNELS 3 Zrotation Xrotation Yrotation
                JOINT RightForeArmRoll
                {
                  OFFSET 0 6.80872 0
                  CHANNELS 3 Zrotation Xrotation Yrotation
                  JOINT RightHand
                  {
                    OFFSET 0 13.6636 0
                    CHANNELS 3 Zrotation Xrotation Yrotation
                    End Site
                    {
                      OFFSET 0 0 0
                    }
                  }
                }
              }
            }
          }
        }
        JOINT LeftShoulder
        {
          OFFSET 3.57307 9.16386 -0.497525
          CHANNELS 3 Zrotation Xrotation Yrotation
          JOINT LeftArm
          {
            OFFSET 0 12.0192 0
            CHANNELS 3 Zrotation Xrotation Yrotation
            JOINT LeftArmRoll
            {
              OFFSET 0 6.06755 0
              CHANNELS 3 Zrotation Xrotation Yrotation
              JOINT LeftForeArm
              {
                OFFSET 0 17.6726 0
                CHANNELS 3 Zrotation Xrotation Yrotation
                JOINT LeftForeArmRoll
                {
                  OFFSET 0 6.80872 0
                  CHANNELS 3 Zrotation Xrotation Yrotation
                  JOINT LeftHand
                  {
                    OFFSET 0 13.6636 0
                    CHANNELS 3 Zrotation Xrotation Yrotation
                    End Site
                    {
                      OFFSET 0 0 0
                    }
                  }
                }
              }
            }
          }
        }
      }
    }
  }
  JOINT RightUpLeg
  {
    OFFSET -5.27774 -0.967797 -0.811858
    CHANNELS 3 Zrotation Xrotation Yrotation
    JOINT RightUpLegRoll
    {
      OFFSET 0 16.0214 0
      CHANNELS 3 Zrotation Xrotation Yrotation
      JOINT RightLeg
      {
        OFFSET 0 -19.8401 0
        CHANNELS 3 Zrotation Xrotation Yrotation
        JOINT RightLegRoll
        {
          OFFSET 0 19.905 0
          CHANNELS 3 Zrotation Xrotation Yrotation
          JOINT RightFoot
          {
            OFFSET 0 16.5675 0
            CHANNELS 3 Zrotation Xrotation Yrotation
            JOINT RightToeBase
            {
              OFFSET 0 13.8496 0
              CHANNELS 3 Zrotation Xrotation Yrotation
              End Site
              {
                OFFSET 0.00587034 6.70728 -0.773117
              }
            }
          }
        }
      }
    }
  }
  JOINT LeftUpLeg
  {
    OFFSET 5.27774 -0.967797 -0.811858
    CHANNELS 3 Zrotation Xrotation Yrotation
    JOINT LeftUpLegRoll
    {
      OFFSET 0 16.0215 0
      CHANNELS 3 Zrotation Xrotation Yrotation
      JOINT LeftLeg
      {
        OFFSET 0 19.84 0
        CHANNELS 3 Zrotation Xrotation Yrotation
        JOINT LeftLegRoll
        {
          OFFSET 0 20.089 0
          CHANNELS 3 Zrotation Xrotation Yrotation
          JOINT LeftFoot
          {
            OFFSET 0 16.3835 0
            CHANNELS 3 Zrotation Xrotation Yrotation
            JOINT LeftToeBase
            {
              OFFSET 0 13.8496 0
              CHANNELS 3 Zrotation Xrotation Yrotation
              End Site
              {
                OFFSET -0.0263083 6.70727 -0.773117
              }
            }
          }
        }
      }
    }
  }
}
MOTION
Frames: 12
Frame Time: 0.00208333
51.3078 84.3563 6.47225 0.566297 -9.64746 0.278668 0.284096 -0.205716 0.0835283 0.567492 3.61049 0.121065 0.566856 5.25552 0.112163 -8.28061 14.1752 2.46708 11.6569 -0.0124299 0.552402 70.0326 2.25572 -0.134661 110.662 17.6771 -11.2516 8.74653e-015 0 -0 -3.64071 -0.0264576 -1.99242 -8.07045e-007 -3.21341e-006 -3.01161 8.03009 -4.95137 0.697628 -66.3237 -2.01467 1.90594 -114.566 17.5777 13.9069 -4.77083e-015 3.18055e-015 -1.59028e-015 3.64021 -0.0267915 1.9925 3.70192e-006 -2.44031e-006 3.01161 -8.0301 -4.95138 -0.697621 178.437 -4.84172 4.29643 180 7.01512e-015 178.782 176.971 8.27499 179.933 -4.12723e-006 1.70326e-006 0.100101 -18.5357 67.8306 19.4033 8.1427 25.2323 -3.49038 -178.682 -3.20612 -0.823718 4.54188e-006 -4.6773e-006 -1.17808 -2.5114 -11.1059 0.0535907 1.5033e-006 1.23405e-006 -0.189172 20.1279 69.7725 -21.1351 -8.13649 25.2327 3.48774 
51.3106 84.3572 6.47817 0.562017 -9.63914 0.290899 0.284092 -0.206922 0.0835342 0.567375 3.60672 0.12111 0.566739 5.25175 0.112211 -8.2485 14.1452 2.46425 11.658 -0.0281187 0.56454 70.0441 2.25672 -0.135733 110.646 17.6681 -11.2343 -9.54166e-015 -6.36111e-015 -6.36111e-015 -3.64071 -0.0264576 -1.99242 -8.07045e-007 -3.21341e-006 -3.01161 8.03009 -4.95137 0.697628 -66.3206 -2.01538 1.90603 -114.57 17.5795 13.9111 5.96354e-015 -3.18055e-015 3.18055e-015 3.64021 -0.0267915 1.9925 3.70192e-006 -2.44031e-006 3.01161 -8.0301 -4.95138 -0.697621 178.445 -4.83586 4.29245 180 7.01512e-015 178.782 176.97 8.27621 179.934 -4.12723e-006 1.70326e-006 0.0998922 -18.5365 67.8317 19.4042 8.1427 25.2323 -3.49038 -178.682 -3.1943 -0.814766 4.54188e-006 -4.6773e-006 -1.1781 -2.49902 -11.1137 0.0546716 1.5033e-006 1.23405e-006 -0.189541 20.1373 69.782 -21.145 -8.13649 25.2327 3.48774 
51.3064 84.3571 6.47779 0.557674 -9.63099 0.303367 0.284085 -0.208098 0.08354 0.56726 3.60296 0.121154 0.566625 5.24798 0.112259 -8.21565 14.1153 2.46122 11.6585 -0.0434814 0.576636 70.0563 2.25777 -0.136873 110.63 17.659 -11.2162 7.15625e-015 3.18055e-015 3.18055e-015 -3.64071 -0.0264576 -1.99242 -8.07045e-007 -3.21341e-006 -3.01161 8.03009 -4.95137 0.697628 -66.317 -2.01613 1.90609 -114.575 17.5826 13.9169 1.11319e-014 -3.18055e-015 1.59028e-015 3.64021 -0.0267915 1.9925 3.70192e-006 -2.44031e-006 3.01161 -8.0301 -4.95138 -0.697621 178.453 -4.83009 4.28844 180 7.01512e-015 178.782 176.969 8.27757 179.934 -4.12723e-006 1.70326e-006 0.0996702 -18.5375 67.8328 19.4053 8.1427 25.2323 -3.49038 -178.682 -3.18268 -0.805449 4.54188e-006 -4.6773e-006 -1.17812 -2.48618 -11.1215 0.0557985 1.5033e-006 1.23405e-006 -0.189911 20.1471 69.7918 -21.1552 -8.13649 25.2327 3.48774 
51.306 84.3562 6.4814 0.553287 -9.62298 0.316003 0.284077 -0.209254 0.0835457 0.567148 3.5992 0.121198 0.566512 5.24423 0.112306 -8.18226 14.0855 2.45806 11.6584 -0.0586159 0.588703 70.0689 2.25886 -0.138063 110.613 17.6498 -11.1976 7.95139e-015 6.36111e-015 -1.59028e-015 -3.64071 -0.0264576 -1.99242 -8.07045e-007 -3.21341e-006 -3.01161 8.03009 -4.95137 0.697628 -66.313 -2.01691 1.90613 -114.581 17.5866 13.9237 -3.57812e-015 0 -3.18055e-015 3.64021 -0.0267915 1.9925 3.70192e-006 -2.44031e-006 3.01161 -8.0301 -4.95138 -0.697621 178.461 -4.82437 4.28441 180 7.01512e-015 178.782 176.968 8.27906 179.935 -4.12723e-006 1.70326e-006 0.0994389 -18.5386 67.8342 19.4065 8.1427 25.2323 -3.49038 -178.683 -3.17118 -0.795876 4.54188e-006 -4.6773e-006 -1.17814 -2.47302 -11.1292 0.0569576 1.5033e-006 1.23405e-006 -0.190282 20.157 69.8018 -21.1657 -8.13649 25.2327 3.48774 
51.3042 84.3563 6.48662 0.548873 -9.61504 0.328733 0.284069 -0.210398 0.0835514 0.567036 3.59545 0.121242 0.566401 5.24048 0.112353 -8.14859 14.0557 2.45481 11.6581 -0.0736199 0.600754 70.0819 2.25997 -0.13928 110.596 17.6404 -11.1788 -7.95139e-015 0 -4.77083e-015 -3.64071 -0.0264576 -1.99242 -8.07045e-007 -3.21341e-006 -3.01161 8.03009 -4.95137 0.697628 -66.3089 -2.01769 1.90617 -114.587 17.591 13.9311 -2.3059e-014 -3.18055e-015 -9.54166e-015 3.64021 -0.0267915 1.9925 3.70192e-006 -2.44031e-006 3.01161 -8.0301 -4.95138 -0.697621 178.469 -4.81869 4.28036 180 7.01512e-015 178.782 176.967 8.2806 179.935 -4.12723e-006 1.70326e-006 0.0992024 -18.5397 67.8355 19.4077 8.1427 25.2323 -3.49038 -178.683 -3.15976 -0.786158 4.54188e-006 -4.6773e-006 -1.17817 -2.45966 -11.1369 0.0581351 1.5033e-006 1.23405e-006 -0.190654 20.1671 69.8119 -21.1763 -8.13649 25.2327 3.48774 
51.3037 84.354 6.48618 0.544449 -9.60711 0.341487 0.28406 -0.211539 0.083557 0.566925 3.5917 0.121287 0.56629 5.23673 0.1124 -8.11484 14.026 2.45155 11.6577 -0.0885912 0.612801 70.0949 2.26108 -0.140504 110.579 17.6311 -11.1599 3.97569e-015 0 -3.18055e-015 -3.64071 -0.0264576 -1.99242 -8.07045e-007 -3.21341e-006 -3.01161 8.03009 -4.95137 0.697628 -66.3047 -2.01848 1.90619 -114.594 17.5957 13.9386 -1.03368e-014 -3.18055e-015 -1.59028e-015 3.64021 -0.0267915 1.9925 3.70192e-006 -2.44031e-006 3.01161 -8.0301 -4.95138 -0.697621 178.477 -4.81301 4.27632 180 7.01512e-015 178.782 176.966 8.28218 179.936 -4.12723e-006 1.70326e-006 0.0989645 -18.5409 67.8369 19.4089 8.1427 25.2323 -3.49038 -178.683 -3.14836 -0.776403 4.54188e-006 -4.6773e-006 -1.1782 -2.44627 -11.1446 0.0593173 1.5033e-006 1.23405e-006 -0.191027 20.1773 69.822 -21.187 -8.13649 25.2327 3.48774 
51.3051 84.3526 6.48674 0.540033 -9.59915 0.354192 0.284052 -0.212686 0.0835626 0.566814 3.58795 0.121331 0.566178 5.23297 0.112447 -8.08124 13.9962 2.44832 11.6574 -0.103628 0.624856 70.1078 2.26218 -0.141715 110.562 17.6217 -11.1411 -5.56597e-015 0 -7.95139e-015 -3.64071 -0.0264576 -1.99242 -8.07045e-007 -3.21341e-006 -3.01161 8.03009 -4.95137 0.697628 -66.3006 -2.01926 1.90623 -114.6 17.6 13.9459 8.74653e-015 -6.36111e-015 1.59028e-015 3.64021 -0.0267915 1.9925 3.70192e-006 -2.44031e-006 3.01161 -8.0301 -4.95138 -0.697621 178.485 -4.80732 4.27228 180 7.01512e-015 178.782 176.965 8.2837 179.937 -4.12723e-006 1.70326e-006 0.0987293 -18.542 67.8382 19.4102 8.1427 25.2323 -3.49038 -178.683 -3.13692 -0.766722 4.54188e-006 -4.6773e-006 -1.17823 -2.43296 -11.1523 0.0604903 1.5033e-006 1.23405e-006 -0.191399 20.1874 69.8321 -21.1976 -8.13649 25.2327 3.48774 
51.3031 84.3516 6.49095 0.535643 -9.59109 0.366777 0.284044 -0.213848 0.0835684 0.566701 3.58419 0.121375 0.566065 5.22922 0.112495 -8.04802 13.9664 2.4452 11.6575 -0.118827 0.636931 70.1203 2.26326 -0.14289 110.545 17.6125 -11.1227 8.74653e-015 3.18055e-015 -1.59028e-015 -3.64071 -0.0264576 -1.99242 -8.07045e-007 -3.21341e-006 -3.01161 8.03009 -4.95137 0.697628 -66.2968 -2.02003 1.90628 -114.606 17.6037 13.9524 -5.56597e-015 -3.18055e-015 -4.77083e-015 3.64021 -0.0267915 1.9925 3.70192e-006 -2.44031e-006 3.01161 -8.0301 -4.95138 -0.697621 178.493 -4.80159 4.26825 180 7.01512e-015 178.782 176.964 8.28517 179.937 -4.12723e-006 1.70326e-006 0.0985007 -18.5431 67.8395 19.4113 8.1427 25.2323 -3.49038 -178.683 -3.12539 -0.757223 4.54188e-006 -4.6773e-006 -1.17826 -2.41989 -11.1601 0.0616404 1.5033e-006 1.23405e-006 -0.19177 20.1973 69.842 -21.208 -8.13649 25.2327 3.48774 
51.3025 84.3505 6.49508 0.531297 -9.58289 0.379171 0.284039 -0.215033 0.0835742 0.566585 3.58042 0.121419 0.56595 5.22545 0.112542 -8.01541 13.9364 2.44224 11.6582 -0.134287 0.649041 70.1323 2.2643 -0.14401 110.529 17.6034 -11.1048 -7.95139e-015 6.36111e-015 -4.77083e-015 -3.64071 -0.0264576 -1.99242 -8.07045e-007 -3.21341e-006 -3.01161 8.03009 -4.95137 0.697628 -66.2933 -2.02077 1.90635 -114.61 17.6064 13.9577 1.07344e-014 -3.18055e-015 1.59028e-015 3.64021 -0.0267915 1.9925 3.70192e-006 -2.44031e-006 3.01161 -8.0301 -4.95138 -0.697621 178.501 -4.79579 4.26425 180 7.01512e-015 178.782 176.963 8.28648 179.938 -4.12723e-006 1.70326e-006 0.0982826 -18.544 67.8406 19.4123 8.1427 25.2323 -3.49038 -178.683 -3.1137 -0.748017 4.54188e-006 -4.6773e-006 -1.17827 -2.40718 -11.1679 0.0627539 1.5033e-006 1.23405e-006 -0.192139 20.207 69.8517 -21.2182 -8.13649 25.2327 3.48774 
51.3047 84.3506 6.49947 0.527011 -9.5745 0.391301 0.284035 -0.216251 0.0835802 0.566467 3.57665 0.121464 0.565831 5.22167 0.11259 -7.98362 13.9064 2.43951 11.6597 -0.150106 0.661195 70.1435 2.26528 -0.145054 110.514 17.5945 -11.0877 -1.59028e-015 6.36111e-015 -0 -3.64071 -0.0264576 -1.99242 -8.07045e-007 -3.21341e-006 -3.01161 8.03009 -4.95137 0.697628 -66.2904 -2.02147 1.90645 -114.614 17.6077 13.9614 4.37326e-015 -3.18055e-015 -3.18055e-015 3.64021 -0.0267915 1.9925 3.70192e-006 -2.44031e-006 3.01161 -8.0301 -4.95138 -0.697621 178.508 -4.78989 4.26029 180 7.01512e-015 178.782 176.962 8.28761 179.938 -4.12723e-006 1.70326e-006 0.098079 -18.5448 67.8416 19.4131 8.1427 25.2323 -3.49038 -178.683 -3.10181 -0.739213 4.54188e-006 -4.6773e-006 -1.17828 -2.39499 -11.1757 0.063817 1.5033e-006 1.23405e-006 -0.192507 20.2164 69.8611 -21.2281 -8.13649 25.2327 3.48774 
51.3142 84.3115 6.51141 0.522805 -9.56584 0.403097 0.284035 -0.21751 0.0835865 0.566346 3.57286 0.121509 0.565709 5.21788 0.112639 -7.95289 13.8761 2.43706 11.6622 -0.166381 0.673408 70.1538 2.26619 -0.146 110.5 17.5859 -11.0717 -4.77083e-015 9.54166e-015 -3.18055e-015 -3.64071 -0.0264576 -1.99242 -8.07045e-007 -3.21341e-006 -3.01161 8.03009 -4.95137 0.697628 -66.2882 -2.02213 1.90659 -114.616 17.6073 13.9629 -7.15625e-015 -9.54166e-015 -1.59028e-015 3.64021 -0.0267915 1.9925 3.70192e-006 -2.44031e-006 3.01161 -8.0301 -4.95138 -0.697621 178.516 -4.78388 4.25637 180 7.01512e-015 178.782 176.961 8.28852 179.939 -4.12723e-006 1.70326e-006 0.0978939 -18.5454 67.8423 19.4138 8.1427 25.2323 -3.49038 -178.683 -3.08964 -0.73092 4.54188e-006 -4.6773e-006 -1.17828 -2.38344 -11.1835 0.0648158 1.5033e-006 1.23405e-006 -0.192872 20.2253 69.87 -21.2374 -8.13649 25.2327 3.48774 
51.3104 84.3289 6.51128 0.518694 -9.55688 0.414486 0.284038 -0.218819 0.083593 0.566219 3.56905 0.121554 0.565583 5.21408 0.112688 -7.92344 13.8456 2.43496 11.6659 -0.183209 0.685692 70.1628 2.26702 -0.146829 110.487 17.5776 -11.0568 7.15625e-015 3.18055e-015 1.59028e-015 -3.64071 -0.0264576 -1.99242 -8.07045e-007 -3.21341e-006 -3.01161 8.03009 -4.95137 0.697628 -66.2868 -2.02273 1.90677 -114.616 17.6046 13.962 -1.35174e-014 0 -6.36111e-015 3.64021 -0.0267915 1.9925 3.70192e-006 -2.44031e-006 3.01161 -8.0301 -4.95138 -0.697621 178.523 -4.77772 4.2525 180 7.01512e-015 178.782 176.961 8.28916 179.939 -4.12723e-006 1.70326e-006 0.0977311 -18.5457 67.8427 19.4142 8.1427 25.2323 -3.49038 -178.682 -3.07716 -0.723248 4.54188e-006 -4.6773e-006 -1.17827 -2.37268 -11.1915 0.0657365 1.5033e-006 1.23405e-006 -0.193234 20.2338 69.8783 -21.2463 -8.13649 25.2327 3.48774 
